<?xml version="1.0" encoding="utf-8"?>
<!-- Generator: Adobe Illustrator 22.1.0, SVG Export Plug-In . SVG Version: 6.00 Build 0)  -->
<svg version="1.1" id="Layer_1" xmlns="http://www.w3.org/2000/svg" xmlns:xlink="http://www.w3.org/1999/xlink" x="0px" y="0px"
	 viewBox="0 0 116.00995 113.54409" style="enable-background:new 0 0 116.00995 113.54409;" xml:space="preserve">
<g>
	<g>
		<path d="M66.38141,99.25709c-27.36531,0-49.62854-22.26323-49.62854-49.62854S39.01609,0,66.38141,0
			s49.62854,22.26323,49.62854,49.62854S93.74672,99.25709,66.38141,99.25709z M66.38141,12.03116
			c-20.73143,0-37.59738,16.86595-37.59738,37.59738s16.86595,37.59738,37.59738,37.59738s37.59738-16.86594,37.59738-37.59738
			S87.11284,12.03116,66.38141,12.03116z"/>
	</g>
	<g>
		<path d="M62.6929,113.54409c-25.4076,0-47.08558-16.27335-55.158-38.94486L5.95977,86.12885L0,85.31522L4.19372,54.6102
			l5.98768,0.40681c0,28.95513,23.55637,52.5115,52.5115,52.5115V113.54409z"/>
	</g>
	<polygon points="84.82243,45.48989 84.82243,57.26542 57.86509,57.26542 57.86509,19.17177 69.64814,19.17177 69.64814,45.48989 	
		"/>
</g>
</svg>
