<?xml version="1.0" encoding="utf-8"?>
<!-- Generator: Adobe Illustrator 22.1.0, SVG Export Plug-In . SVG Version: 6.00 Build 0)  -->
<svg version="1.1" id="fae85302-d6a4-4167-97e9-e5a398e49112"
	 xmlns="http://www.w3.org/2000/svg" xmlns:xlink="http://www.w3.org/1999/xlink" x="0px" y="0px" viewBox="0 0 1018.4 725.2"
	 style="enable-background:new 0 0 1018.4 725.2;" xml:space="preserve">
<style type="text/css">
	.st0{opacity:0.1;enable-background:new    ;}
	.st1{fill:#E6E6E6;}
	.st2{fill:#FFD764;}
	.st3{fill:#3F3D56;}
	.st4{opacity:0.1;fill:#FFD764;enable-background:new    ;}
	.st5{fill:#F2F2F2;}
	.st6{fill:#FFB9B9;}
	.st7{fill:#CCCCCC;}
	.st8{opacity:0.1;fill:#707070;enable-background:new    ;}
</style>
<title>complete_task</title>
<ellipse class="st0" cx="161.2" cy="670.8" rx="89.5" ry="15.1"/>
<ellipse class="st0" cx="487.2" cy="707.8" rx="89.5" ry="15.1"/>
<path class="st1" d="M74.7,380.3c6.5,8.6,13.5,18.5,20.4,29.3l1-49.7l0.5,0.3c-7.4-5.4-15.4-9.7-24-12.8l0.5,0.3L74.7,380.3z"/>
<path class="st1" d="M72,347.3c-8.9-3-17.5-4-25.4-2.6c-0.4,0.1-0.8,0.2-1.2,0.2c2,2.1,13.7,14.8,28.1,33.9L72,347.3z"/>
<path class="st1" d="M124,463.9c1.1,2.5,2.1,5.1,3,7.6l18.2-53.8l0.5,0.5c-2.2-4-4.4-8-6.8-11.8l-14.7,57.8L124,463.9z"/>
<path class="st1" d="M113.4,441.2l9.5-56.4l0.5,0.4c-7.8-9.2-16.6-17.4-26.3-24.6l-1,50.6C102.5,421.4,108.3,431.4,113.4,441.2z"/>
<path class="st1" d="M16.6,401.3l-0.2-0.7c0.8,8.5,2.5,17,5,25.2l87.6,9c-4.6-8.4-9.3-16.3-13.9-23.5L16.6,401.3z"/>
<path class="st1" d="M21.8,427.2l-0.2-0.7c0.9,2.9,1.9,5.8,3,8.8l-0.2-0.7l88.6,7.9c-1.1-2.1-2.2-4.2-3.2-6.2L21.8,427.2z"/>
<path class="st1" d="M123.4,462.4l14.6-57.3l0.5,0.5c-4.4-6.9-9.2-13.5-14.5-19.8l-9.7,57.2C117.6,449.6,120.7,456.1,123.4,462.4z"
	/>
<path class="st1" d="M127.1,474.3L40.8,466c4.7,6.3,9.8,12.3,15.3,17.9l-0.2-0.8l78.8,16.2C132.7,490.9,130.1,482.5,127.1,474.3z"/>
<path class="st1" d="M44.8,345.4L45,345c-11.9,2.7-20.2,10.8-24.8,22.4l52.7,11.9C57.3,358.7,44.9,345.6,44.8,345.4z"/>
<path class="st1" d="M128.6,475.7c2.7,7.4,5,15,6.9,22.6l20.5-51.5l0.5,0.5c-1.3-7.2-3.5-14.1-6.6-20.8c-1.2-2.6-2.5-5.1-3.8-7.7
	l-18.4,54.4C128,474.2,128.3,475,128.6,475.7z"/>
<path class="st1" d="M94.2,409.8c-6.8-10.6-13.7-20.4-20.1-28.9l-54-12.2l-0.2-0.7c-3.4,8.9-4.6,19.8-3.6,31.9L94.2,409.8z"/>
<path class="st1" d="M39.8,464.6l86.7,8.4l0-0.1c-3.8-9.9-8.1-19.6-12.9-29.1l-88.8-7.9c1.5,4,3.2,8,5.1,12.1
	C32.7,453.8,36,459.4,39.8,464.6z"/>
<path class="st1" d="M249.4,481.4l0.2,0.6c-2.2-8.8-5.7-17.3-10.3-25.2l0.2,0.6L220,483.5c-0.5,10.8-1.4,22.8-3,35.5L249.4,481.4z"
	/>
<path class="st1" d="M239,456.4c-4.9-8-10.9-14.3-17.9-18.2c-0.4-0.2-0.7-0.4-1.1-0.6c0.2,2.9,1.1,20.1,0,44L239,456.4z"/>
<path class="st1" d="M204.6,579.3c-0.8,2.6-1.6,5.2-2.5,7.7l48.3-29.8l0.1,0.7c0.9-4.5,1.7-9,2.3-13.5l-48.2,35.1L204.6,579.3z"/>
<path class="st1" d="M210.9,555.1l43.3-37.4l0.1,0.7c-0.1-12-1.6-24-4.6-35.7l-33.1,38.3C215.2,532.9,213.2,544.3,210.9,555.1z"/>
<path class="st1" d="M254.3,519.2l-43.9,37.9c-1.6,7.2-3.4,14.1-5.4,20.8l47.8-34.8l0.1,0.7C254,535.5,254.4,527.4,254.3,519.2z"/>
<path class="st1" d="M169.6,647.1c0-0.6,0.1-1.2,0.1-1.8c7.8-9.3,14.5-19.5,19.9-30.5l-26.5-33c-0.3-1.1-0.7-2.3-1.1-3.4l28.2,35.2
	c3.8-7.9,7.2-15.9,10.1-24.2l-55.8-56.1c0.2-0.4,0.4-0.9,0.5-1.4l55.7,56l0,0c3.4-10,6.3-20.3,8.6-30.6l-55.3-54.8
	c0.1-0.5,0.2-1,0.3-1.5l55.4,54.8c0.5-2.3,1-4.6,1.5-6.8l-55.2-56.2c0.1-0.5,0.2-1.1,0.3-1.6l55.2,56.2c1.9-9.4,3.3-18.5,4.3-27
	l-54.1-57.7l0.3-0.7c-1.3,1.9-2.5,3.8-3.7,5.9c0-6.4-0.5-12.8-1.6-19.1l-20.7,52c1.7,7.2,2.9,14.4,3.6,21.8
	c-0.1,1.2-0.2,2.5-0.3,3.7l0.7,0.7c0,0.7,0.1,1.3,0.1,2l-0.9-0.9c0,0.7-0.1,1.5-0.1,2.2c-0.4-9.9-1.8-19.7-4-29.4l-78.2-16.1
	c3.9,4,8.1,8,12.3,11.8c-8.2-2.6-16.7-4-25.3-4.3l0.6,0.1L56,522.7c8.8,6.2,18.5,13.4,28.4,21.6l-14.2-46.9c0.5,0.5,1.1,0.9,1.6,1.4
	l14.2,46.8c9.2,7.6,17.8,15.4,25.6,23.1l-6.5-44c0.5,0.3,0.9,0.6,1.4,0.9l6.6,44.5c5.2,5.2,10.1,10.4,14.6,15.7l-3.2-48.3
	c0.4,0.3,0.9,0.6,1.3,0.8l3.2,48.8l-0.3-0.1c1.8,2.1,3.5,4.2,5.2,6.2l0.6-49.6c0.5,0.3,0.9,0.5,1.3,0.8l-0.6,50.5
	c0.5,0.6,1,1.3,1.5,1.9c4.9,6.2,9.4,12.7,13.6,19.4l0.3-4.5c0.4,1.3,0.7,2.7,1.1,3.9l-0.2,2.6c0.6,1,1.2,2,1.8,3
	c0.5,1.5,0.9,3,1.3,4.5c-1.3-2.4-2.6-4.7-4-7.1l-79.4,8.9c41.7,22,93.5,32.4,96.8,33c-0.8-3.5-1.7-6.9-2.8-10.3
	c0.3-0.3,0.6-0.6,0.8-0.9c0.1,0.4,0.3,0.8,0.4,1.2c-0.1,0.2-0.3,0.3-0.4,0.5c0.2-0.1,0.3-0.2,0.5-0.2c0.8,2.4,1.4,4.8,2.1,7.1
	c0.2-1.9,0.6-4.9,0.8-8.6c14.3-7.2,51.3-28.1,70.1-60.9l-49.1,26.8C184.9,626.7,177.9,637.4,169.6,647.1z M153.4,569.6l0.1-1.9
	l1.2,1.6l-0.1,1.9L153.4,569.6z"/>
<path class="st1" d="M219.1,437.5l0.4-0.2c-10.8-5.5-22.4-4.6-33.4,1.4l33,42.8C220.3,455.7,219.2,437.8,219.1,437.5z"/>
<path class="st1" d="M200.6,591.4c-2.6,7.4-5.7,14.7-9.1,21.8l48.7-26.6l0.1,0.7c3.6-6.3,6.3-13.1,8.2-20.2c0.7-2.8,1.4-5.5,2-8.3
	L201.5,589C201.2,589.8,200.9,590.6,200.6,591.4z"/>
<path class="st1" d="M219.1,483.5l-33.8-43.8l0.3-0.6c-8.3,4.7-16.2,12.3-23.1,22.3l53.7,57.3C217.7,506.1,218.6,494.2,219.1,483.5z
	"/>
<path class="st1" d="M43.2,492.1c-9.4-0.1-17.9,1.6-24.9,5.3c-0.4,0.2-0.7,0.4-1.1,0.6c2.6,1.4,17.6,9.9,37.2,23.6L43.2,492.1z"/>
<path class="st1" d="M84.9,545.9L7.2,560.7l-0.4-0.6c3.4,7.9,7.6,15.4,12.6,22.4l86.1-18.5C98.5,557.4,91.5,551.3,84.9,545.9z"/>
<path class="st1" d="M111.6,570c-1.7-1.7-3.3-3.3-5-4.9l-86.4,18.5l-0.4-0.6c1.7,2.5,3.6,4.9,5.5,7.4l-0.4-0.6L111.6,570z"/>
<path class="st1" d="M149.9,617.5c-4.6-7.5-9.6-14.6-15-21.5l-84.6,18.8c6.4,4.6,13.1,8.7,20.1,12.3l-0.4-0.7L149.9,617.5z"/>
<path class="st1" d="M16.7,498.8l0.1-0.5c-10.4,6.2-15.9,16.5-16.7,29l53.9-5C32.7,507.5,16.9,498.9,16.7,498.8z"/>
<path class="st1" d="M55.5,523.5l-55.1,5.1L0.1,528c-0.5,9.5,1.7,20.2,6.5,31.5l77.1-14.7C73.8,536.8,64.3,529.6,55.5,523.5z"/>
<path class="st1" d="M133.9,594.8c-6.6-8.3-13.7-16.2-21.2-23.7L25.8,591c2.7,3.3,5.5,6.6,8.6,9.9c4.4,4.7,9.3,8.9,14.5,12.7
	L133.9,594.8L133.9,594.8z"/>
<path class="st2" d="M74.7,380.3c6.5,8.6,13.5,18.5,20.4,29.3l1-49.7l0.5,0.3c-7.4-5.4-15.4-9.7-24-12.8l0.5,0.3L74.7,380.3z"/>
<path class="st2" d="M72,347.3c-8.9-3-17.5-4-25.4-2.6c-0.4,0.1-0.8,0.2-1.2,0.2c2,2.1,13.7,14.8,28.1,33.9L72,347.3z"/>
<path class="st2" d="M124,463.9c1.1,2.5,2.1,5.1,3,7.6l18.2-53.8l0.5,0.5c-2.2-4-4.4-8-6.8-11.8l-14.7,57.8L124,463.9z"/>
<path class="st2" d="M113.4,441.2l9.5-56.4l0.5,0.4c-7.8-9.2-16.6-17.4-26.3-24.6l-1,50.6C102.5,421.4,108.3,431.4,113.4,441.2z"/>
<path class="st2" d="M16.6,401.3l-0.2-0.7c0.8,8.5,2.5,17,5,25.2l87.6,9c-4.6-8.4-9.3-16.3-13.9-23.5L16.6,401.3z"/>
<path class="st2" d="M21.8,427.2l-0.2-0.7c0.9,2.9,1.9,5.8,3,8.8l-0.2-0.7l88.6,7.9c-1.1-2.1-2.2-4.2-3.2-6.2L21.8,427.2z"/>
<path class="st2" d="M123.4,462.4l14.6-57.3l0.5,0.5c-4.4-6.9-9.2-13.5-14.5-19.8l-9.7,57.2C117.6,449.6,120.7,456.1,123.4,462.4z"
	/>
<path class="st2" d="M127.1,474.3L40.8,466c4.7,6.3,9.8,12.3,15.3,17.9l-0.2-0.8l78.8,16.2C132.7,490.9,130.1,482.5,127.1,474.3z"/>
<path class="st2" d="M44.8,345.4L45,345c-11.9,2.7-20.2,10.8-24.8,22.4l52.7,11.9C57.3,358.7,44.9,345.6,44.8,345.4z"/>
<path class="st2" d="M128.6,475.7c2.7,7.4,5,15,6.9,22.6l20.5-51.5l0.5,0.5c-1.3-7.2-3.5-14.1-6.6-20.8c-1.2-2.6-2.5-5.1-3.8-7.7
	l-18.4,54.4C128,474.2,128.3,475,128.6,475.7z"/>
<path class="st2" d="M94.2,409.8c-6.8-10.6-13.7-20.4-20.1-28.9l-54-12.2l-0.2-0.7c-3.4,8.9-4.6,19.8-3.6,31.9L94.2,409.8z"/>
<path class="st2" d="M39.8,464.6l86.7,8.4l0-0.1c-3.8-9.9-8.1-19.6-12.9-29.1l-88.8-7.9c1.5,4,3.2,8,5.1,12.1
	C32.7,453.8,36,459.4,39.8,464.6z"/>
<path class="st2" d="M249.4,481.4l0.2,0.6c-2.2-8.8-5.7-17.3-10.3-25.2l0.2,0.6L220,483.5c-0.5,10.8-1.4,22.8-3,35.5L249.4,481.4z"
	/>
<path class="st2" d="M239,456.4c-4.9-8-10.9-14.3-17.9-18.2c-0.4-0.2-0.7-0.4-1.1-0.6c0.2,2.9,1.1,20.1,0,44L239,456.4z"/>
<path class="st2" d="M204.6,579.3c-0.8,2.6-1.6,5.2-2.5,7.7l48.3-29.8l0.1,0.7c0.9-4.5,1.7-9,2.3-13.5l-48.2,35.1L204.6,579.3z"/>
<path class="st2" d="M210.9,555.1l43.3-37.4l0.1,0.7c-0.1-12-1.6-24-4.6-35.7l-33.1,38.3C215.2,532.9,213.2,544.3,210.9,555.1z"/>
<path class="st2" d="M254.3,519.2l-43.9,37.9c-1.6,7.2-3.4,14.1-5.4,20.8l47.8-34.8l0.1,0.7C254,535.5,254.4,527.4,254.3,519.2z"/>
<path class="st2" d="M169.6,647.1c0-0.6,0.1-1.2,0.1-1.8c7.8-9.3,14.5-19.5,19.9-30.5l-26.5-33c-0.3-1.1-0.7-2.3-1.1-3.4l28.2,35.2
	c3.8-7.9,7.2-15.9,10.1-24.2l-55.8-56.1c0.2-0.4,0.4-0.9,0.5-1.4l55.7,56l0,0c3.4-10,6.3-20.3,8.6-30.6l-55.3-54.8
	c0.1-0.5,0.2-1,0.3-1.5l55.4,54.8c0.5-2.3,1-4.6,1.5-6.8l-55.2-56.2c0.1-0.5,0.2-1.1,0.3-1.6l55.2,56.2c1.9-9.4,3.3-18.5,4.3-27
	l-54.1-57.7l0.3-0.7c-1.3,1.9-2.5,3.8-3.7,5.9c0-6.4-0.5-12.8-1.6-19.1l-20.7,52c1.7,7.2,2.9,14.4,3.6,21.8
	c-0.1,1.2-0.2,2.5-0.3,3.7l0.7,0.7c0,0.7,0.1,1.3,0.1,2l-0.9-0.9c0,0.7-0.1,1.5-0.1,2.2c-0.4-9.9-1.8-19.7-4-29.4l-78.2-16.1
	c3.9,4,8.1,8,12.3,11.8c-8.2-2.6-16.7-4-25.3-4.3l0.6,0.1L56,522.7c8.8,6.2,18.5,13.4,28.4,21.6l-14.2-46.9c0.5,0.5,1.1,0.9,1.6,1.4
	l14.2,46.8c9.2,7.6,17.8,15.4,25.6,23.1l-6.5-44c0.5,0.3,0.9,0.6,1.4,0.9l6.6,44.5c5.2,5.2,10.1,10.4,14.6,15.7l-3.2-48.3
	c0.4,0.3,0.9,0.6,1.3,0.8l3.2,48.8l-0.3-0.1c1.8,2.1,3.5,4.2,5.2,6.2l0.6-49.6c0.5,0.3,0.9,0.5,1.3,0.8l-0.6,50.5
	c0.5,0.6,1,1.3,1.5,1.9c4.9,6.2,9.4,12.7,13.6,19.4l0.3-4.5c0.4,1.3,0.7,2.7,1.1,3.9l-0.2,2.6c0.6,1,1.2,2,1.8,3
	c0.5,1.5,0.9,3,1.3,4.5c-1.3-2.4-2.6-4.7-4-7.1l-79.4,8.9c41.7,22,93.5,32.4,96.8,33c-0.8-3.5-1.7-6.9-2.8-10.3
	c0.3-0.3,0.6-0.6,0.8-0.9c0.1,0.4,0.3,0.8,0.4,1.2c-0.1,0.2-0.3,0.3-0.4,0.5c0.2-0.1,0.3-0.2,0.5-0.2c0.8,2.4,1.4,4.8,2.1,7.1
	c0.2-1.9,0.6-4.9,0.8-8.6c14.3-7.2,51.3-28.1,70.1-60.9l-49.1,26.8C184.9,626.7,177.9,637.4,169.6,647.1z M153.4,569.6l0.1-1.9
	l1.2,1.6l-0.1,1.9L153.4,569.6z"/>
<path class="st2" d="M219.1,437.5l0.4-0.2c-10.8-5.5-22.4-4.6-33.4,1.4l33,42.8C220.3,455.7,219.2,437.8,219.1,437.5z"/>
<path class="st2" d="M200.6,591.4c-2.6,7.4-5.7,14.7-9.1,21.8l48.7-26.6l0.1,0.7c3.6-6.3,6.3-13.1,8.2-20.2c0.7-2.8,1.4-5.5,2-8.3
	L201.5,589C201.2,589.8,200.9,590.6,200.6,591.4z"/>
<path class="st2" d="M219.1,483.5l-33.8-43.8l0.3-0.6c-8.3,4.7-16.2,12.3-23.1,22.3l53.7,57.3C217.7,506.1,218.6,494.2,219.1,483.5z
	"/>
<path class="st2" d="M43.2,492.1c-9.4-0.1-17.9,1.6-24.9,5.3c-0.4,0.2-0.7,0.4-1.1,0.6c2.6,1.4,17.6,9.9,37.2,23.6L43.2,492.1z"/>
<path class="st2" d="M84.9,545.9L7.2,560.7l-0.4-0.6c3.4,7.9,7.6,15.4,12.6,22.4l86.1-18.5C98.5,557.4,91.5,551.3,84.9,545.9z"/>
<path class="st2" d="M111.6,570c-1.7-1.7-3.3-3.3-5-4.9l-86.4,18.5l-0.4-0.6c1.7,2.5,3.6,4.9,5.5,7.4l-0.4-0.6L111.6,570z"/>
<path class="st2" d="M149.9,617.5c-4.6-7.5-9.6-14.6-15-21.5l-84.6,18.8c6.4,4.6,13.1,8.7,20.1,12.3l-0.4-0.7L149.9,617.5z"/>
<path class="st2" d="M16.7,498.8l0.1-0.5c-10.4,6.2-15.9,16.5-16.7,29l53.9-5C32.7,507.5,16.9,498.9,16.7,498.8z"/>
<path class="st2" d="M55.5,523.5l-55.1,5.1L0.1,528c-0.5,9.5,1.7,20.2,6.5,31.5l77.1-14.7C73.8,536.8,64.3,529.6,55.5,523.5z"/>
<path class="st2" d="M133.9,594.8c-6.6-8.3-13.7-16.2-21.2-23.7L25.8,591c2.7,3.3,5.5,6.6,8.6,9.9c4.4,4.7,9.3,8.9,14.5,12.7
	L133.9,594.8L133.9,594.8z"/>
<rect x="479.3" y="415" class="st3" width="15" height="110"/>
<rect x="656.3" y="415" width="15" height="110"/>
<rect x="302.3" y="398" class="st1" width="546" height="25"/>
<rect x="302.3" y="477" class="st1" width="546" height="25"/>
<rect x="302.3" y="431" class="st1" width="546" height="15"/>
<rect x="302.3" y="454" class="st1" width="546" height="15"/>
<rect x="300.8" y="393.5" width="17" height="132"/>
<rect x="831.3" y="393" width="17" height="132"/>
<rect x="254.3" y="560" width="17" height="137"/>
<rect x="310.3" y="555" width="17" height="73"/>
<rect x="827.3" y="555" width="17" height="73"/>
<rect x="875.3" y="560" width="17" height="137"/>
<rect x="254.3" y="560" width="638" height="18"/>
<polygon class="st1" points="300.3,520 254.3,560 892.3,560 848.3,520 "/>
<path class="st4" d="M199.8,27.7l-0.1-0.7l-12.3-6.5h-1.9l-0.7-1.4h-25.4l-5.9,1.4h-21.7l-5.9,6.8l-0.1,0.4
	c-0.4,2.4-8.9,60.1,13.5,78.4l9.3,4.3h6l-1.2-2.4l5.3,2.4h17l0.3-0.5l10.1-3.8l0.3-0.3C187.3,104.9,208.8,78.8,199.8,27.7z"/>
<rect x="159.3" y="85" class="st1" width="10" height="26"/>
<rect x="154.8" y="144.5" width="18" height="500"/>
<rect x="150.3" y="136" width="27" height="17"/>
<path d="M127.3,28l-8-8l6-6h76l6,7l-9,7C198.3,28,150.3,26,127.3,28z"/>
<path d="M199.8,27.7l-0.1-0.7l-12.3-6.5l-5.6-3l-31.5-2l-17.7,4.2l-0.7,0.8l-5.9,6.8l-0.1,0.4c-0.4,2.4-8.9,60.1,13.5,78.4l9.3,4.3
	l7.9,3.6l-1.8-3.6l-3-6c-3.1-18.2-10-66.1-5.6-76.1l18.1-5.8l16.1,6c1.1,7.2,8.3,57.6-4.3,75.6l-0.3,0.4v5.6l10.4-3.9l0.3-0.3
	C187.3,104.9,208.8,78.8,199.8,27.7z M184.4,103.7l-5.6,2.1v-0.4c13.8-20.6,4.8-75.9,4.4-78.2l-0.1-0.9l-15.8-5.9l-2.9-1.1l-3.4,1.1
	L144,26l-0.3,0.5c-6.4,11.5,4.6,76,5.1,78.8l0,0.2l1.2,2.4l-8.9-4.1c-20-16.6-13.1-69.8-12.4-75.1l5.4-6.3l7.9-1.8l8.5-2l13.9,0.9
	l16.5,1.1l0,0l16,8.5C204.9,75.3,186.6,100.8,184.4,103.7z"/>
<ellipse cx="164.3" cy="14" rx="27" ry="14"/>
<path d="M150.3,619l-16,51c0,0,25,14,59,0l-16-51H150.3z"/>
<circle class="st2" cx="164.3" cy="80" r="8"/>
<path d="M433.6,359.3c2.8-2,6-3.6,9.3-4.6c21-7.8,42.9-12.6,65.3-14.2c19.4-1.4,40.4,0.3,55.6,12.5c2.4,1.7,4.3,4,5.6,6.6
	c1.9,4.1,1.3,8.9,0.7,13.4c-0.1,1.7-0.6,3.4-1.3,5c-2,3.9-7.1,5.2-11.4,4.8c-4.4-0.5-8.5-2.3-12.8-3.2c-2.7-0.5-5.4-0.7-8.1-0.8
	l-27-1.5c-16.8-0.9-33.8-1.8-50.2,1.6c-5.1,0.9-10,2.6-14.5,5c-3.8,2.1-6.3,5.1-9.8,1.2C428.9,378.2,425.5,365.6,433.6,359.3z"/>
<path class="st5" d="M475.4,371.3c0,0,36.3-16.3,50.1,2.5c13.8,18.8-7.5,11.3-7.5,11.3l-23.8,7.5l-26.3-5L475.4,371.3z"/>
<path class="st6" d="M477.3,359.4c0,0,5,23.8,1.3,30s21.3,15,21.3,15l23.8-10c0,0-6.3-38.8,0-46.3L477.3,359.4z"/>
<path class="st0" d="M477.3,359.4c0,0,5,23.8,1.3,30s21.3,15,21.3,15l23.8-10c0,0-6.3-38.8,0-46.3L477.3,359.4z"/>
<path class="st7" d="M453.8,645.3c3.6,6.9,5.9,14.3,8.3,21.7c0.1,1,1,1.6,2,1.5c0.1,0,0.1,0,0.2,0l22.3,0c2.7,0,6.4-0.9,6.4-3.6
	c0-1.9-2-3.1-3.5-4.4c-4.1-3.5-5.1-9.2-6.8-14.3c-3.3-9.8-9.6-18.3-18-24.2c-1.1-0.9-2.5-1.5-3.9-1.9c-1.4-0.2-2.8-0.1-4.2,0.2
	c-3.9,0.8-18.5,3.5-15.7,9.2c1.2,2.4,5.6,5,7.4,7.3C450.4,639.3,452.2,642.2,453.8,645.3z"/>
<path class="st7" d="M531.2,619.5c-0.8,1.6-1.7,3.3-2.6,4.8c-3.2,5.3-7,10.3-10,15.7c-1.9,3.4-3.5,7.1-3.7,10.9s1.2,8,4.2,10.3
	c3.2,2.5,7.7,2.6,11.7,2s8-1.7,12.1-1.4c-1.4-7.7,5.1-14.5,6.8-22.2c0.5-2.2,0.5-4.4,1.1-6.5c0.7-1.9,1.5-3.8,2.5-5.6
	c3.2-6.3,5.5-13.1,6.8-20.1c0.2-0.8-19.8-1-21.7-0.6C532.6,608.3,533.5,614.6,531.2,619.5z"/>
<path d="M377.5,498.2c-5.7,8.9-4.4,20.7-0.4,30.5s10.4,18.4,14.7,28.1c2.8,6.1,4.7,12.7,7.9,18.6c3.9,7.4,9.5,13.9,12.1,21.8
	c1.7,5.1,2,10.6,4.7,15.2c1.6,2.5,3.5,4.8,5.5,6.9c5.8,6.6,10.1,14.4,12.7,22.8c2.5-7.3,9.8-12.1,17.3-13.7s15.4-0.5,23,0.6
	c-4.3-6.6-8.6-13.3-11.1-20.7c-2.5-7.2-3.2-14.8-4.8-22.2c-3.4-15.2-10.6-29.2-17.8-43l36.8-2.9c6-0.6,12.1-0.8,18.1-0.7
	c9.5,0.4,18.8,2.8,28.3,3.9s19.5,0.8,27.9-3.6c-16.1,23.1-24.5,50.8-24,78.9c13.3-10.3,32.5-7.9,42.9,5.4c1.3,1.7,2.5,3.5,3.4,5.5
	c14.4-19.7,12.7-47.2,24.2-68.8c2.4-4.4,5.2-8.6,7.8-12.9c5-8.6,8.7-17.9,12.3-27.1c3.2-8.2,6.4-17.3,3.4-25.5
	c-1.3-3.1-3.1-6-5.5-8.4c-6.6-7.3-15.8-12.7-25.6-12.9c-15.1-0.3-27.5,10.8-40.8,18.1c-15.6,8.5-33.8,11.9-51.5,10.7
	c-18.2-1.3-35.5-7.2-52.8-12.5c-8.7-2.7-17.5-5-26.4-6.8c-7.4-1.4-14.5,0.2-21.8,2C390.1,487.4,382.1,491,377.5,498.2z"/>
<path class="st6" d="M534.9,335.6c0,20.7-16.8,37.5-37.5,37.5c-2.2,0-4.5-0.2-6.7-0.6c-20.4-3.7-34-23.2-30.3-43.6
	s23.2-34,43.6-30.3C521.9,301.9,534.9,317.4,534.9,335.6L534.9,335.6z"/>
<path class="st5" d="M475.4,371.3c0,0,6.9,3.1,9.4,5.6s10,16.3,22.5,7.5c12.5-8.8,13.8-13.8,17.5-13.8c3.8,0,8.8,7.5,8.8,7.5
	L568,481.4c-9.3,10.5-20,19.5-31.9,26.9c-20,12.5-43.8,18.8-55.1,13.8s-32.5-8.8-36.3-18.8s-10-40-10-40l17.5-76.3L475.4,371.3z"/>
<path d="M470.6,475.7c2.7-5.9,3.1-12.6,3.4-19.1c0.4-6.4,0.2-12.9-0.5-19.3c-1.1-8.4-3.8-16.4-5.6-24.7c-1.5-7.3-2.2-14.6-2.2-22
	c0-3.4,0.3-6.9,2.1-9.8c1.3-2,3.3-3.5,4.1-5.7c1.6-4.3-2.3-8.9-6.6-10.7c-5.1-2.1-10.9-2-16.2-0.7s-10.3,3.8-15.2,6.2
	c-3.6,1.8-7.2,3.6-10,6.4c-3.9,4-5.6,9.6-7,15c-1.1,4.3-2.1,8.9-1.2,13.3c1.4,7.1,7.2,12.5,10.3,19.1c3.6,7.6,3.4,16.5,1.9,24.8
	s-4,16.4-4.8,24.8s0.4,17.4,5.7,24c2.1,2.7,8,9.1,11.9,8.3c3.1-0.6,7.6-7.4,10-9.5C457.9,490.1,466.4,484.6,470.6,475.7z"/>
<path d="M536.1,367.2c0.1,7-3,13.6-6.6,19.6c-3.6,6-7.9,11.6-10.5,18.1c-3.3,8.1-4,17-1.9,25.5c0.8,2.9,1.7,5.7,2.8,8.5l6.9,18.8
	c0.9,3,2.3,5.8,4,8.3c1.6,2,3.4,3.7,5.4,5.2c5.2,4.2,11.2,7.3,17.6,9.2c6.5,1.7,13.5,1.6,19.6-1.1c0.7-25.5,4.8-50.8,12.2-75.2
	c1.4-4.5,2.9-9.2,1.8-13.8c-1.2-5.1-5.3-9-9.2-12.5c-12-10.8-25.2-22.1-41.3-23.6C527.5,353.3,536.1,362.1,536.1,367.2z"/>
<path class="st6" d="M454,512.7c1,1.9,1.5,3.9,2.5,5.8c1.4,2.5,3.1,4.8,5.1,6.9c8.4,9.3,18.6,18.5,31.1,19.1c1.2,0.1,2.5,0,3.7-0.5
	c2.2-0.9,3.5-3.2,3.9-5.6c0.9-4.8-1.3-9.7-3.4-14.1c-4.6-9.6-9.9-19.5-18.6-25.7c-8.6-6.1-20.1-7.6-30-4.5c-4.5,1.4-12,3.8-6,8
	C446.7,505.1,451.4,507.5,454,512.7z"/>
<path class="st6" d="M508,390.3c-1.5-3.4-3.1-6.9-5.9-9.5c-2.6-2.2-5.7-3.8-9-4.5c-4.3-1.2-8.7-1.9-13.2-1.9
	c-5.3,0-11.4,1.4-13.7,6.2c-1.8,3.8-0.4,8.3,1.4,12.1c0.8,2,2,3.7,3.7,5c2.3,1.5,5.2,1.5,8,2c4.2,0.8,8.1,3.1,11.8,5.3l9.3,5.6
	l15.9,9.6c-0.4-0.3-0.3-11.2-0.8-13C514,401.5,510.4,395.7,508,390.3z"/>
<path d="M461.5,664.1c-3.7,5.1-3,12.3-6.3,17.7c-2.9,4.6-8.3,7.1-11.8,11.2c-1.1,1.4-2.2,2.8-3,4.4c-3.3,5.6-6,12.7-2.8,18.3
	c2.6,4.5,8.2,6.3,13.2,7.5c6.4,1.5,13.1,2.7,19.6,1.6s12.8-5.1,15.1-11.3c0.5-1.6,1-3.1,1.6-4.6c3.5-6.9,14.6-7,18.2-13.9
	c2.5-4.8,0.2-10.6-2.1-15.6l-7.1-15c-2.3-5-11.9-2.1-16.8-3.3C472.9,659.5,466.2,657.8,461.5,664.1z"/>
<path d="M516.2,651.2c-3,2.1-4.9,5.4-6.4,8.8c-3.5,8.1-4.7,16.9-5.9,25.6c-0.5,3.5-0.9,7.1-0.2,10.5c1.5,7.1,8,12.4,14.9,14.5
	c6.9,2.2,14.4,1.8,21.7,1.5c2.3-0.1,4.8-0.3,6.8-1.4c3.7-2,5.1-6.8,4.5-10.9s-2.9-7.8-5.1-11.3s-4.5-7.2-5.1-11.3
	c-1.1-6.9,1.9-17.1-2.3-23.4C534.8,647.6,521.9,647.2,516.2,651.2z"/>
<path d="M533.9,316c-0.7-2.2-2.1-4.2-4.1-5.4c0.1-2.4-0.2-4.8-0.9-7.1c-2.3-6.7-7.7-6.3-12.7-9.3c-2.2-1.3-2.1-2.4-3.2-4.5
	c-1.5-2.8-3.8-5.1-6.5-6.6c-3.3-2.1-6.7-4.2-10.6-4.5c-8.1-0.6-14.3,7.1-22.1,9.5c-3.4,1.1-7.1,1.1-10.5,2.1s-6.9,3.5-7.4,7
	c-0.2,1.6,0.2,3.3-0.1,5c-0.5,3.3-3.3,5.5-5.2,8.2c-4.2,5.9-3.7,14.3-0.4,20.7c0.7,1.3,1.5,2.6,2.4,3.8c0.3,3,1.2,6,2.6,8.7
	c3.4,6.4,9.2,11.2,15.3,15.2c-0.5-2.1-0.8-4.3-0.9-6.5c-0.1-0.7,0-1.5,0.3-2.2c0.7-1.4,2.5-1.8,3.8-2.6c2.8-1.6,3.9-5.2,4-8.4
	s-0.6-6.5-0.3-9.7c0-1.5,0.7-2.9,1.8-3.9c1-0.6,2.2-0.9,3.4-0.8c5.8-0.2,11.8-0.3,16.9-3.1c1.7-0.9,3.4-2.2,5.3-2.7
	c4.3-1.1,8.8,1.9,11.3,5.6s3.7,8.1,6,12s6.3,7.3,10.7,6.8c0.5,0,1-0.2,1.3-0.6c0.2-0.3,0.3-0.7,0.2-1.1l0.2-17
	C535,321.8,534.7,318.8,533.9,316z"/>
<path d="M415.1,405.1c-3.6,5.3-7.7,10.4-9.7,16.4c-1.2,3.6-1.5,7.3-2.4,11c-2.8,12.2-10.9,23-11.7,35.5c-0.3,2.8,0.1,5.6,1.2,8.1
	c2.3,5,7.8,7.7,13.1,9.4s11,2.9,15.2,6.5c2.1,2,4,4.3,5.7,6.7c6.9,8.6,16.1,14.9,26.6,18.2c-0.8-5.7-1.2-12.6,3.3-16.1
	c2.5-1.9,5.8-2.2,8.9-2.5l14.7-1.3c-9.8-9.5-20.6-17.9-32.1-25c-4.1-2.5-8.5-5.1-10.3-9.5c-1.2-2.7-1.1-5.8-1.2-8.8
	c-0.1-10.9-1-21.8-2.8-32.6c-1.2-7.5-2.8-14.9-4.6-22.2c-0.5-2.1-3.5-11.3-7.3-9.2c-0.9,0.5-1.7,6.4-2.2,7.6
	C418.3,400,416.8,402.6,415.1,405.1z"/>
<path d="M584,385.1l6,12.5c2.9,5.1,4.2,11,3.8,16.8l0.4,37.4c0,5,0.1,10.1-1.2,14.9c-0.4,1.6-1.1,3.1-2.1,4.4
	c-1,1.1-2.2,2.1-3.5,2.9c-11.3,7.1-26,11.1-38,5.2c-2.7-1.5-5.3-3.2-7.8-5.1c-4.8-3.5-9.6-7.1-13.2-11.9c-3.7-5-5.9-10.9-8.4-16.6
	c-4.5-10.2-10.3-19.8-17.3-28.4c-1-1.3-2.1-2.6-2.1-4.3c-0.1-3.3,3.8-4.9,6.8-6.1c5.2-2.1,10.1-6.2,10.9-11.8
	c11,14.4,23.1,29.7,40.5,35c0.8,0.5,1.9,0.3,2.5-0.5c0.2-0.3,0.3-0.6,0.3-1c1-4.1,1.3-8.4,2.1-12.6c1.3-7.6,3.9-15,7.5-21.7
	C573.1,390.3,579.8,376.3,584,385.1z"/>
<path class="st8" d="M435.4,421.1c0.2,8.8-1.7,17.6-5.5,25.6c-1,1.8-1.7,3.7-2.1,5.6c-0.7,4.2,1.7,8.3,4.5,11.5
	c5.4,6.4,12.4,11.3,20.3,14.1"/>
<path class="st8" d="M565.4,413.7c-0.9,2.4-0.1,5,0.6,7.4c2,7.1,2.9,14.4,2.7,21.7c0.1,0.4-0.2,0.8-0.6,0.9c-0.1,0-0.2,0-0.3,0
	c-2.9,0.2-6.2,0.2-8.2-1.9"/>
<rect x="661.1" y="127.5" class="st1" width="357.3" height="70.5"/>
<rect x="661.1" y="210" class="st1" width="357.3" height="70.5"/>
<circle class="st2" cx="698.7" cy="162.3" r="21.1"/>
<rect x="749.1" y="154.1" class="st2" width="208" height="4.6"/>
<rect x="749.1" y="166" class="st2" width="208" height="4.6"/>
<circle class="st7" cx="698.7" cy="245.7" r="21.1"/>
<rect x="749.1" y="237.4" class="st7" width="208" height="4.6"/>
<rect x="749.1" y="249.4" class="st7" width="208" height="4.6"/>
<rect x="661.1" y="291" class="st1" width="357.3" height="70.5"/>
<circle class="st7" cx="698.7" cy="326.7" r="21.1"/>
<rect x="749.1" y="318.4" class="st7" width="208" height="4.6"/>
<rect x="749.1" y="330.4" class="st7" width="208" height="4.6"/>
<polygon class="st5" points="696.8,170.3 689.2,160.2 691,158.9 697.2,167.1 721.4,147.3 722.8,149 "/>
<polygon class="st7" points="140.3,105 157.3,123 150.3,136 164.3,139 177.3,136 169.3,122 185.3,105 "/>
</svg>
