<?xml version="1.0" encoding="utf-8"?>
<!-- Generator: Adobe Illustrator 22.1.0, SVG Export Plug-In . SVG Version: 6.00 Build 0)  -->
<svg version="1.1" id="Layer_1" xmlns="http://www.w3.org/2000/svg" xmlns:xlink="http://www.w3.org/1999/xlink" x="0px" y="0px"
	 viewBox="0 0 402.45657 69.29318" style="enable-background:new 0 0 402.45657 69.29318;" xml:space="preserve">
<style type="text/css">
	.st0{fill:#FFD764;}
</style>
<g>
	<g>
		<rect class="st0" width="69.29318" height="69.29318"/>
		<polygon points="55.43007,13.86219 55.43007,55.43747 13.8548,55.43747 13.8548,41.57597 27.71624,41.57597 27.71624,27.71453 
			41.57774,27.71453 41.57774,13.86219 		"/>
	</g>
	<g>
		<g>
			<rect x="148.24451" y="12.99052" class="st0" width="8.66488" height="43.31861"/>
			<path class="st0" d="M291.34619,33.62536h14.75949v21.11506c-2.29709,0.73272-4.63272,1.28716-7.00864,1.66302
				c-2.37589,0.37586-5.12793,0.56421-8.2561,0.56421c-6.57324,0-11.69113-1.95476-15.35361-5.86512
				c-3.66306-3.91008-5.49402-9.38928-5.49402-16.43788c0-4.51398,0.90598-8.46849,2.71738-11.86411
				c1.8114-3.39533,4.4198-5.98892,7.8252-7.78076c3.4054-1.79184,7.39487-2.68776,11.96835-2.68776
				c4.63275,0,8.94858,0.85149,12.94809,2.55391l-1.96005,4.45473c-3.92017-1.66302-7.69162-2.49466-11.315-2.49466
				c-5.2861,0-9.41415,1.57415-12.38361,4.72189c-2.97,3.14802-4.45502,7.51361-4.45502,13.09676
				c0,5.86065,1.43024,10.30532,4.29184,13.3343c2.86044,3.02925,7.06284,4.54388,12.6066,4.54388
				c3.00912,0,5.94894-0.34624,8.82004-1.03956V38.13934h-9.71094V33.62536z"/>
			<path class="st0" d="M355.66974,25.60678c0,4.39549-1.49954,7.77629-4.49918,10.14185
				c-2.99963,2.36611-7.29089,3.54903-12.87375,3.54903h-5.10837v17.07615h-5.04858V12.95574h11.25574
				C350.24503,12.95574,355.66974,17.17266,355.66974,25.60678z M333.18845,34.9617h4.54385
				c4.47403,0,7.71118-0.72238,9.71152-2.16798c1.99918-1.44504,2.99905-3.76142,2.99905-6.94912
				c0-2.87052-0.94064-5.00888-2.82135-6.4148c-1.88071-1.40564-4.811-2.10846-8.79041-2.10846h-5.64267V34.9617z"/>
			<path class="st0" d="M397.22974,56.37381l-5.40515-13.80936h-17.40256l-5.34589,13.80936h-5.10782l17.16556-43.59636h4.24655
				l17.07614,43.59636H397.22974z M390.2507,38.02057l-5.04855-13.45306c-0.65335-1.70242-1.32684-3.79104-2.01932-6.26614
				c-0.43594,1.90055-1.05969,3.98973-1.87122,6.26614l-5.10779,13.45306H390.2507z"/>
			<polygon class="st0" points="134.79507,47.64429 134.79507,56.30914 100.1413,56.30914 100.1413,12.99052 108.80617,12.99052 
				108.80617,47.64429 			"/>
			<polygon class="st0" points="205.00682,12.99052 205.00682,21.6554 179.01796,21.6554 179.01796,30.32027 196.34767,30.32027 
				196.34767,38.98515 179.01796,38.98515 179.01796,56.30914 170.35881,56.30914 170.35881,12.99052 			"/>
			<polygon class="st0" points="227.12112,21.6554 227.12112,30.32027 244.44514,30.32027 244.44514,38.98515 227.12112,38.98515 
				227.12112,47.64429 253.11,47.64429 253.11,56.30914 218.45625,56.30914 218.45625,12.99052 253.11,12.99052 253.11,21.6554 			
				"/>
		</g>
	</g>
</g>
</svg>
