<?xml version="1.0" encoding="utf-8"?>
<!-- Generator: Adobe Illustrator 22.1.0, SVG Export Plug-In . SVG Version: 6.00 Build 0)  -->
<svg version="1.1" id="Layer_1" xmlns="http://www.w3.org/2000/svg" xmlns:xlink="http://www.w3.org/1999/xlink" x="0px" y="0px"
	 viewBox="0 0 142 93" style="enable-background:new 0 0 142 93;" xml:space="preserve">
<style type="text/css">
	.st0{fill:#FFD764;}
</style>
<g>
	<g>
		<rect x="44.82346" y="0.36337" class="st0" width="52.35308" height="52.35308"/>
		<polygon points="86.70255,10.83667 86.70255,42.24804 55.29118,42.24804 55.29118,31.77526 65.76391,31.77526 65.76391,21.30253 
			76.23669,21.30253 76.23669,10.83667 		"/>
	</g>
	<g>
		<rect x="22.74419" y="72.0441" class="st0" width="4.05738" height="20.28418"/>
		<path class="st0" d="M89.75235,81.70647h6.91122v9.88725c-1.07562,0.3431-2.16931,0.60271-3.28184,0.77872
			s-2.40118,0.2642-3.86597,0.2642c-3.07796,0-5.47443-0.91533-7.18941-2.74638c-1.71524-1.83092-2.5726-4.39658-2.5726-7.69714
			c0-2.11369,0.42423-3.96542,1.27243-5.55543c0.8482-1.58988,2.0696-2.80434,3.66419-3.64339s3.46268-1.25856,5.60424-1.25856
			c2.16931,0,4.19023,0.39871,6.06302,1.19588l-0.91782,2.08596c-1.83562-0.77872-3.60164-1.16814-5.2983-1.16814
			c-2.47524,0-4.40823,0.73711-5.79869,2.21105c-1.39072,1.47408-2.08608,3.51829-2.08608,6.13263
			c0,2.74429,0.66972,4.82553,2.00967,6.24386c1.33942,1.41846,3.30722,2.1277,5.90311,2.1277
			c1.40905,0,2.78564-0.16213,4.13004-0.48678v-6.25773h-4.5472V81.70647z"/>
		<path class="st0" d="M119.8722,77.95174c0,2.05821-0.70216,3.64129-2.10676,4.74898
			c-1.40459,1.10794-3.41399,1.66185-6.02821,1.66185h-2.39203v7.996h-2.36401V72.02782h5.27056
			C117.33205,72.02782,119.8722,74.00241,119.8722,77.95174z M109.34521,82.33222h2.1277c2.09498,0,3.6108-0.33826,4.54745-1.01517
			c0.93613-0.67665,1.40434-1.76131,1.40434-3.25396c0-1.34414-0.44046-2.34544-1.32111-3.00377
			c-0.88065-0.6582-2.25279-0.9873-4.11617-0.9873h-2.64222V82.33222z"/>
		<path class="st0" d="M139.3329,92.35857l-2.53099-6.46631h-8.14883l-2.50326,6.46631h-2.39175l8.03786-20.41424h1.98848
			l7.996,20.41424H139.3329z M136.06494,83.76456l-2.36403-6.29947c-0.30594-0.79716-0.62129-1.77518-0.94556-2.93415
			c-0.20413,0.88994-0.4962,1.86821-0.87619,2.93415l-2.39177,6.29947H136.06494z"/>
		<polygon class="st0" points="16.44642,88.27092 16.44642,92.32829 0.2196,92.32829 0.2196,72.0441 4.27697,72.0441 
			4.27697,88.27092 		"/>
		<polygon class="st0" points="49.32346,72.0441 49.32346,76.10148 37.15403,76.10148 37.15403,80.15885 45.26876,80.15885 
			45.26876,84.21622 37.15403,84.21622 37.15403,92.32829 33.09933,92.32829 33.09933,72.0441 		"/>
		<polygon class="st0" points="59.67861,76.10148 59.67861,80.15885 67.79068,80.15885 67.79068,84.21622 59.67861,84.21622 
			59.67861,88.27092 71.84804,88.27092 71.84804,92.32829 55.62123,92.32829 55.62123,72.0441 71.84804,72.0441 71.84804,76.10148 
					"/>
	</g>
</g>
</svg>
