<?xml version="1.0" encoding="utf-8"?>
<!-- Generator: Adobe Illustrator 22.1.0, SVG Export Plug-In . SVG Version: 6.00 Build 0)  -->
<svg version="1.1" id="Layer_1" xmlns="http://www.w3.org/2000/svg" xmlns:xlink="http://www.w3.org/1999/xlink" x="0px" y="0px"
	 viewBox="0 0 142 27" style="enable-background:new 0 0 142 27;" xml:space="preserve">
<style type="text/css">
	.st0{fill:#FFD764;}
</style>
<g>
	<g>
		<g>
			<rect x="52.53012" y="5.62964" width="3.04136" height="15.20477"/>
			<path d="M102.75859,12.87244h5.18056v7.41135c-0.80627,0.25718-1.62609,0.45179-2.46002,0.58372
				c-0.83394,0.13193-1.7999,0.19804-2.89788,0.19804c-2.30721,0-4.10357-0.68612-5.3891-2.05865
				c-1.28572-1.37243-1.92839-3.29562-1.92839-5.76967c0-1.5844,0.318-2.97243,0.9538-4.16428
				c0.6358-1.19176,1.55134-2.1021,2.74663-2.73103s2.59558-0.9434,4.20087-0.9434c1.62609,0,3.14095,0.29887,4.54476,0.89642
				l-0.68798,1.5636c-1.37596-0.58372-2.69975-0.87562-3.97154-0.87562c-1.85541,0-3.30435,0.55252-4.34663,1.65738
				c-1.04247,1.10495-1.5637,2.63726-1.5637,4.59694c0,2.05708,0.50201,3.61715,1.50642,4.68032
				c1.00402,1.06326,2.47905,1.59489,4.4249,1.59489c1.05621,0,2.08808-0.12153,3.09583-0.36488v-4.69071h-3.40852V12.87244z"/>
			<path d="M125.33605,10.05793c0,1.54281-0.52634,2.72947-1.5792,3.55977c-1.05286,0.8305-2.55909,1.2457-4.51867,1.2457h-1.79303
				v5.9937h-1.77204V5.61743h3.95074C123.43198,5.61743,125.33605,7.09757,125.33605,10.05793z M117.44515,13.34149h1.59489
				c1.57037,0,2.70661-0.25356,3.40871-0.76096c0.70171-0.50721,1.05267-1.32025,1.05267-2.43913
				c0-1.00755-0.33016-1.75811-0.99029-2.25159c-0.66013-0.49338-1.68867-0.74007-3.08543-0.74007h-1.98057V13.34149z"/>
			<path d="M139.92354,20.85711l-1.89719-4.84706h-6.10828l-1.8764,4.84706h-1.79283l6.02509-15.30225h1.49054l5.9937,15.30225
				H139.92354z M137.47392,14.41515l-1.77205-4.722c-0.22932-0.59755-0.46571-1.33065-0.70877-2.1994
				c-0.15302,0.66709-0.37195,1.40039-0.65678,2.1994l-1.79283,4.722H137.47392z"/>
			<polygon points="47.80939,17.79306 47.80939,20.83441 35.64597,20.83441 35.64597,5.62964 38.68733,5.62964 38.68733,17.79306 
							"/>
			<polygon points="72.45361,5.62964 72.45361,8.671 63.33156,8.671 63.33156,11.71236 69.41426,11.71236 69.41426,14.75371 
				63.33156,14.75371 63.33156,20.83441 60.29221,20.83441 60.29221,5.62964 			"/>
			<polygon points="80.2157,8.671 80.2157,11.71236 86.2964,11.71236 86.2964,14.75371 80.2157,14.75371 80.2157,17.79306 
				89.33775,17.79306 89.33775,20.83441 77.17434,20.83441 77.17434,5.62964 89.33775,5.62964 89.33775,8.671 			"/>
		</g>
	</g>
	<g>
		<rect x="0.24184" y="0.48575" class="st0" width="26.02851" height="26.02851"/>
		<polygon points="21.06296,5.69278 21.06296,21.30965 5.4461,21.30965 5.4461,16.10287 10.65285,16.10287 10.65285,10.89612 
			15.85963,10.89612 15.85963,5.69278 		"/>
	</g>
</g>
</svg>
